<?xml version="1.0" encoding="UTF-8" standalone="no"?>
<!-- Created with Inkscape (http://www.inkscape.org/) -->

<svg
   width="61.580002mm"
   height="61.580002mm"
   viewBox="0 0 61.580002 61.580002"
   version="1.1"
   id="svg5"
   inkscape:version="1.1 (c68e22c387, 2021-05-23)"
   sodipodi:docname="log.svg"
   xmlns:inkscape="http://www.inkscape.org/namespaces/inkscape"
   xmlns:sodipodi="http://sodipodi.sourceforge.net/DTD/sodipodi-0.dtd"
   xmlns="http://www.w3.org/2000/svg"
   xmlns:svg="http://www.w3.org/2000/svg">
  <sodipodi:namedview
     id="namedview7"
     pagecolor="#ffffff"
     bordercolor="#666666"
     borderopacity="1.0"
     inkscape:pageshadow="2"
     inkscape:pageopacity="0.0"
     inkscape:pagecheckerboard="0"
     inkscape:document-units="mm"
     showgrid="false"
     inkscape:zoom="4.2230385"
     inkscape:cx="-90.101002"
     inkscape:cy="41.557755"
     inkscape:window-width="1482"
     inkscape:window-height="971"
     inkscape:window-x="85"
     inkscape:window-y="28"
     inkscape:window-maximized="0"
     inkscape:current-layer="layer1" />
  <defs
     id="defs2">
    <clipPath
       clipPathUnits="userSpaceOnUse"
       id="clipPath1162-7">
      <path
         id="lpe_path-effect1166-0"
         style="fill:#1effff;fill-opacity:1;stroke-width:0.0877316;stroke-opacity:0"
         class="powerclip"
         d="m 37.794327,75.467979 h 60 v 60.000001 h -60 z m 42.5,30.000001 a 12.5,12.5 0 0 0 -12.5,-12.500001 12.5,12.5 0 0 0 -12.5,12.500001 12.5,12.5 0 0 0 12.5,12.5 12.5,12.5 0 0 0 12.5,-12.5 z" />
    </clipPath>
    <clipPath
       clipPathUnits="userSpaceOnUse"
       id="clipPath1162-7-0">
      <path
         id="lpe_path-effect1166-0-5"
         style="fill:#1effff;fill-opacity:1;stroke-width:0.0877316;stroke-opacity:0"
         class="powerclip"
         d="m 37.794327,75.467979 h 60 v 60.000001 h -60 z m 42.5,30.000001 a 12.5,12.5 0 0 0 -12.5,-12.500001 12.5,12.5 0 0 0 -12.5,12.500001 12.5,12.5 0 0 0 12.5,12.5 12.5,12.5 0 0 0 12.5,-12.5 z" />
    </clipPath>
    <clipPath
       clipPathUnits="userSpaceOnUse"
       id="clipPath1162-7-0-6">
      <path
         id="lpe_path-effect1166-0-5-7"
         style="fill:#1effff;fill-opacity:1;stroke-width:0.0877316;stroke-opacity:0"
         class="powerclip"
         d="m 37.794327,75.467979 h 60 v 60.000001 h -60 z m 42.5,30.000001 a 12.5,12.5 0 0 0 -12.5,-12.500001 12.5,12.5 0 0 0 -12.5,12.500001 12.5,12.5 0 0 0 12.5,12.5 12.5,12.5 0 0 0 12.5,-12.5 z" />
    </clipPath>
  </defs>
  <g
     inkscape:label="Layer 1"
     inkscape:groupmode="layer"
     id="layer1">
    <path
       style="fill:#000000;fill-opacity:1;stroke:#000000;stroke-width:0.5;stroke-miterlimit:4;stroke-dasharray:none;stroke-opacity:1"
       d="m 18.738495,54.790377 c 0.32195,-1.84536 0.388004,-5.91124 0.124508,-7.66412 -0.484548,-3.223403 -1.415423,-5.856375 -3.438015,-9.724382 -1.69762,-3.246536 -2.905701,-5.680758 -3.441805,-6.935071 -1.29589,-3.031966 -2.130108,-6.285857 -2.503957,-9.76675 -0.156148,-1.453893 -0.15742,-6.447308 -0.0021,-8.107248 0.136071,-1.453891 0.490954,-4.1704714 0.697385,-5.3383824 l 0.144864,-0.819583 h 16.643158 c 9.153715,0 16.64312,0.01921 16.64312,0.04268 0,0.02347 -0.09966,0.64993 -0.221457,1.392124 -0.553775,3.3744164 -0.796094,6.6558454 -0.725008,9.8178834 0.05587,2.485268 0.132299,3.371601 0.463169,5.371367 0.681617,4.119673 1.801635,7.188464 4.491,12.305093 2.751267,5.234403 3.50828,6.997366 4.147032,9.657819 0.39334,1.63828 0.534902,2.76661 0.589163,4.696 0.04809,1.7101 -0.02728,3.12677 -0.248661,4.67385 l -0.09826,0.68668 H 35.345446 18.688259 Z"
       id="path6084" />
    <circle
       style="fill:#000000;stroke-width:0.553823"
       id="path2480"
       cx="9.5887661"
       cy="8.3623466"
       r="3.75" />
    <circle
       style="fill:#000000;stroke-width:0.553823"
       id="path2480-5"
       cx="43.66877"
       cy="8.3623466"
       r="3.75" />
    <rect
       style="fill:#000000;stroke-width:0.499999"
       id="rect2698"
       width="33.669453"
       height="4.1643791"
       x="10.319375"
       y="6.4348407" />
    <circle
       style="fill:#000000;stroke-width:0.553823"
       id="path2480-9"
       cx="17.911234"
       cy="53.217655"
       r="3.75" />
    <circle
       style="fill:#000000;stroke-width:0.553823"
       id="path2480-5-7"
       cx="51.991238"
       cy="53.217655"
       r="3.75" />
    <rect
       style="fill:#000000;stroke-width:0.499999"
       id="rect2698-8"
       width="33.669453"
       height="4.1643791"
       x="18.641844"
       y="51.29015" />
    <path
       id="path4790"
       style="fill:none;stroke:#000000;stroke-width:0.264583px;stroke-linecap:butt;stroke-linejoin:miter;stroke-opacity:1"
       d="M 18.641844,55.454529 H 52.311296 M 43.988829,6.4348406 C 38.68418,35.690294 55.524509,35.396276 52.311298,55.454529 M 10.319375,6.4348405 C 5.0147259,35.690294 21.855055,35.396276 18.641844,55.454529 M 10.319375,6.4348405 h 33.669453" />
    <rect
       style="fill:#ffffff;fill-opacity:1;stroke:none;stroke-width:0.815169;stroke-miterlimit:4;stroke-dasharray:none;stroke-opacity:1"
       id="rect7231"
       width="24.720467"
       height="1.76"
       x="13.509112"
       y="13.612347" />
    <rect
       style="fill:#ffffff;fill-opacity:1;stroke:none;stroke-width:0.812843;stroke-miterlimit:4;stroke-dasharray:none;stroke-opacity:1"
       id="rect7231-2-7"
       width="24.719999"
       height="1.75"
       x="13.508766"
       y="19.612347" />
    <rect
       style="fill:#ffffff;fill-opacity:1;stroke:none;stroke-width:0.81285;stroke-miterlimit:4;stroke-dasharray:none;stroke-opacity:1"
       id="rect7231-2-7-6-0"
       width="24.720467"
       height="1.75"
       x="15.096266"
       y="25.612347" />
    <rect
       style="fill:#ffffff;fill-opacity:1;stroke:none;stroke-width:0.81285;stroke-miterlimit:4;stroke-dasharray:none;stroke-opacity:1"
       id="rect7231-2-7-6-0-5-4"
       width="24.720467"
       height="1.75"
       x="18.271265"
       y="31.612347" />
    <rect
       style="fill:#ffffff;fill-opacity:1;stroke:none;stroke-width:0.81285;stroke-miterlimit:4;stroke-dasharray:none;stroke-opacity:1"
       id="rect7231-2-7-6-0-5-4-6-5"
       width="24.720467"
       height="1.75"
       x="20.917101"
       y="37.612347" />
    <rect
       style="fill:#ffffff;fill-opacity:1;stroke:none;stroke-width:0.81285;stroke-miterlimit:4;stroke-dasharray:none;stroke-opacity:1"
       id="rect7231-2-7-6-0-5-4-6-5-0-1"
       width="24.720467"
       height="1.75"
       x="23.562935"
       y="43.612347" />
  </g>
</svg>
