<?xml version="1.0" encoding="UTF-8" standalone="no"?>
<!-- Created with Inkscape (http://www.inkscape.org/) -->

<svg
   width="61.580002mm"
   height="61.580002mm"
   viewBox="0 0 61.580002 61.580002"
   version="1.1"
   id="svg10230"
   inkscape:version="1.1 (c68e22c387, 2021-05-23)"
   sodipodi:docname="drawing-1.svg"
   xmlns:inkscape="http://www.inkscape.org/namespaces/inkscape"
   xmlns:sodipodi="http://sodipodi.sourceforge.net/DTD/sodipodi-0.dtd"
   xmlns="http://www.w3.org/2000/svg"
   xmlns:svg="http://www.w3.org/2000/svg">
  <sodipodi:namedview
     id="namedview10232"
     pagecolor="#ffffff"
     bordercolor="#666666"
     borderopacity="1.0"
     inkscape:pageshadow="2"
     inkscape:pageopacity="0.0"
     inkscape:pagecheckerboard="0"
     inkscape:document-units="mm"
     showgrid="false"
     inkscape:zoom="0.74653479"
     inkscape:cx="236.42569"
     inkscape:cy="346.26651"
     inkscape:window-width="1920"
     inkscape:window-height="1001"
     inkscape:window-x="-9"
     inkscape:window-y="-9"
     inkscape:window-maximized="1"
     inkscape:current-layer="layer1"
     width="61.58mm" />
  <defs
     id="defs10227">
    <clipPath
       clipPathUnits="userSpaceOnUse"
       id="clipPath1162-7">
      <path
         id="lpe_path-effect1166-0"
         style="fill:#1effff;fill-opacity:1;stroke-width:0.0877316;stroke-opacity:0"
         class="powerclip"
         d="m 37.794327,75.467979 h 60 v 60.000001 h -60 z m 42.5,30.000001 a 12.5,12.5 0 0 0 -12.5,-12.500001 12.5,12.5 0 0 0 -12.5,12.500001 12.5,12.5 0 0 0 12.5,12.5 12.5,12.5 0 0 0 12.5,-12.5 z" />
    </clipPath>
  </defs>
  <g
     inkscape:label="Layer 1"
     inkscape:groupmode="layer"
     id="layer1">
    <g
       id="g9822"
       transform="translate(-63.758621,-78.389161)">
      <path
         id="path31-3"
         clip-path="url(#clipPath1162-7)"
         d="m 92.794327,105.46798 c 0,1.72589 -0.174889,3.41093 -0.507911,5.03837 -0.333022,1.62744 -0.824179,3.19728 -1.456713,4.69276 -0.632534,1.49548 -1.406446,2.9166 -2.304982,4.24661 -0.898535,1.33001 -1.921695,2.5689 -3.052725,3.69993 -1.131028,1.13102 -2.369922,2.15419 -3.69993,3.05273 -1.330008,0.89853 -2.75113,1.67245 -4.246611,2.30498 -1.559969,0.65206 -3.15636,1.13926 -4.692756,1.45671 -1.62744,0.33302 -3.312482,0.50791 -5.038372,0.50791 -1.72589,0 -3.410932,-0.17489 -5.038372,-0.50791 -1.62744,-0.33303 -3.197277,-0.82418 -4.692756,-1.45671 -1.495481,-0.63253 -2.916603,-1.40645 -4.246611,-2.30498 -1.330008,-0.89854 -2.568903,-1.92171 -3.699931,-3.05273 -1.13103,-1.13103 -2.15419,-2.36992 -3.052725,-3.69993 -0.898535,-1.33001 -1.672446,-2.75113 -2.304981,-4.24661 -0.632534,-1.49548 -1.12369,-3.06532 -1.456713,-4.69276 -0.333022,-1.62744 -0.507911,-3.31248 -0.507911,-5.03837 0,-1.72589 0.174889,-3.41093 0.507911,-5.03837 0.333023,-1.627442 0.824179,-3.197279 1.456713,-4.692758 0.632535,-1.495479 1.406447,-2.916601 2.304983,-4.24661 0.898536,-1.330009 1.921696,-2.568905 3.052723,-3.699932 1.131028,-1.131027 2.369923,-2.154187 3.699932,-3.052723 1.330009,-0.898537 2.751131,-1.67245 4.24661,-2.304984 1.495479,-0.632534 3.065316,-1.12369 4.692756,-1.456713 1.62744,-0.333022 3.312482,-0.507911 5.038372,-0.507911 1.72589,0 3.410932,0.174889 5.038372,0.507911 1.62744,0.333022 3.197277,0.824178 4.692756,1.456713 1.495479,0.632535 2.916601,1.406448 4.24661,2.304984 1.330009,0.898536 2.568904,1.921695 3.699932,3.052723 1.131027,1.131027 2.154187,2.369923 3.052723,3.699932 0.898536,1.330008 1.672449,2.75113 2.304983,4.246609 0.632534,1.49548 1.12369,3.065317 1.456713,4.692759 0.333022,1.62744 0.507911,3.31248 0.507911,5.03837 z"
         style="fill:#000000;fill-opacity:1;stroke:#000000;stroke-width:0.5;stroke-miterlimit:4;stroke-dasharray:none;stroke-opacity:1"
         sodipodi:nodetypes="ssssssccsssssssssssssssssssssssss"
         transform="translate(26.755551,3.712439)" />
      <path
         style="fill:#000000;fill-opacity:1;stroke:#000000;stroke-width:0.5;stroke-miterlimit:4;stroke-dasharray:none;stroke-opacity:1"
         d="m 72.766718,93.315424 c -0.561385,-0.779534 -1.31777,-1.833565 -1.680855,-2.34229 l -0.660154,-0.924957 2.506511,-2.495098 2.506509,-2.495097 2.234793,1.600967 c 1.229135,0.880531 2.295115,1.661287 2.368838,1.735013 0.119608,0.119608 -5.922975,6.338795 -6.158796,6.338795 -0.05288,0 -0.555461,-0.637799 -1.116846,-1.417333 z"
         id="path7982" />
      <path
         style="fill:#000000;fill-opacity:1;stroke:#000000;stroke-width:0.5;stroke-miterlimit:4;stroke-dasharray:none;stroke-opacity:1"
         d="m 89.796709,84.354216 c 0.0011,-0.07544 0.205917,-1.330465 0.455446,-2.788946 0.249528,-1.458481 0.454477,-2.713508 0.455445,-2.788946 0.0011,-0.07544 1.729992,-0.137163 3.842277,-0.137163 2.112282,0 3.841308,0.06172 3.842274,0.137163 0.0011,0.07544 0.205917,1.330465 0.455446,2.788946 0.249528,1.458481 0.45448,2.713509 0.455445,2.788946 0.0011,0.07544 -2.137957,0.137163 -4.753165,0.137163 -2.615211,0 -4.754137,-0.06172 -4.753168,-0.137163 z"
         id="path8021" />
      <path
         style="fill:#000000;fill-opacity:1;stroke:#000000;stroke-width:0.5;stroke-miterlimit:4;stroke-dasharray:none;stroke-opacity:1"
         d="m 112.02169,91.630382 c -1.70409,-1.706305 -3.05411,-3.14661 -3.00004,-3.200677 0.0541,-0.05406 1.12004,-0.835581 2.36883,-1.736699 l 2.27054,-1.638398 2.50651,2.496783 2.50651,2.496786 -0.59422,0.833514 c -0.32682,0.458436 -1.07825,1.512467 -1.66985,2.342293 -0.59159,0.829826 -1.12384,1.508773 -1.18278,1.508773 -0.0589,0 -1.50141,-1.396069 -3.2055,-3.102375 z"
         id="path8060" />
      <path
         style="fill:#000000;fill-opacity:1;stroke:#000000;stroke-width:0.5;stroke-miterlimit:4;stroke-dasharray:none;stroke-opacity:1"
         d="m 119.23891,109.18042 c 0,-2.61521 0.0617,-4.75414 0.13717,-4.75317 0.0754,0.001 1.33046,0.20592 2.78894,0.45544 1.45849,0.24953 2.71351,0.45448 2.78895,0.45545 0.17936,0.002 0.17936,7.68225 0,7.68455 -0.0754,0.001 -1.33046,0.20592 -2.78895,0.45545 -1.45848,0.24953 -2.7135,0.45448 -2.78894,0.45545 -0.0754,0.001 -0.13717,-2.13796 -0.13717,-4.75317 z"
         id="path8099" />
      <path
         style="fill:#000000;fill-opacity:1;stroke:#000000;stroke-width:0.5;stroke-miterlimit:4;stroke-dasharray:none;stroke-opacity:1"
         d="m 111.39048,131.66783 c -1.24879,-0.90112 -2.31477,-1.68263 -2.36883,-1.7367 -0.0996,-0.0996 6.00794,-6.30305 6.20554,-6.30305 0.0589,0 0.59119,0.67895 1.18278,1.50877 0.5916,0.82983 1.34303,1.88386 1.66985,2.34229 l 0.59422,0.83352 -2.50651,2.49678 -2.50651,2.49679 z"
         id="path8138" />
      <path
         style="fill:#000000;fill-opacity:1;stroke:#000000;stroke-width:0.5;stroke-miterlimit:4;stroke-dasharray:none;stroke-opacity:1"
         d="m 90.7076,139.58451 c -0.0011,-0.0754 -0.205917,-1.33046 -0.455445,-2.78895 -0.249529,-1.45848 -0.45448,-2.7135 -0.455446,-2.78894 -0.0011,-0.0754 2.137957,-0.13716 4.753168,-0.13716 2.615208,0 4.754134,0.0617 4.753165,0.13716 -0.0011,0.0754 -0.205917,1.33046 -0.455445,2.78894 -0.249529,1.45849 -0.454478,2.71351 -0.455446,2.78895 -0.0011,0.0754 -1.729992,0.13716 -3.842274,0.13716 -2.112285,0 -3.841311,-0.0617 -3.842277,-0.13716 z"
         id="path8177" />
      <path
         style="fill:#000000;fill-opacity:1;stroke:#000000;stroke-width:0.5;stroke-miterlimit:4;stroke-dasharray:none;stroke-opacity:1"
         d="m 72.920851,130.79807 -2.496785,-2.50651 1.638397,-2.27053 c 0.901118,-1.2488 1.682634,-2.31477 1.736702,-2.36884 0.09957,-0.0996 6.303052,6.00794 6.303052,6.20555 0,0.0589 -0.67895,0.59118 -1.508776,1.18278 -0.829826,0.59159 -1.883857,1.34302 -2.34229,1.66984 l -0.833517,0.59423 z"
         id="path8216" />
      <path
         style="fill:#000000;fill-opacity:1;stroke:#000000;stroke-width:0.5;stroke-miterlimit:4;stroke-dasharray:none;stroke-opacity:1"
         d="m 67.849138,113.64791 c -0.754388,-0.13632 -1.927117,-0.3406 -2.606066,-0.45394 l -1.234451,-0.20608 v -3.824 c 0,-2.10319 0.06172,-3.82478 0.13716,-3.82575 0.07544,-10e-4 1.330465,-0.20592 2.788946,-0.45545 1.458484,-0.24952 2.713509,-0.45447 2.788949,-0.45544 0.07544,-0.001 0.13716,2.13796 0.13716,4.75317 0,4.41411 -0.02294,4.75351 -0.320042,4.73514 -0.176025,-0.0109 -0.937271,-0.13132 -1.691656,-0.26765 z"
         id="path8255" />
    </g>
  </g>
</svg>
